<svg xmlns="http://www.w3.org/2000/svg" width="55" height="38.5" viewBox="0 0 55 38.5"><g transform="translate(0 -4.179)"><g transform="translate(0 4.179)"><path d="M2.691,6.453,22.5,22.146a5.04,5.04,0,0,0,3.339.967,5.027,5.027,0,0,0,3.337-.967L48.988,6.453c1.587-1.25,1.228-2.274-.786-2.274H3.482C1.467,4.179,1.107,5.2,2.691,6.453Z" transform="translate(1.659 -4.179)" fill="#fff"/><path d="M52.078,7.731,30.429,24.167a5.256,5.256,0,0,1-5.854,0L2.922,7.731C1.315,6.513,0,7.166,0,9.182V36.15a3.678,3.678,0,0,0,3.666,3.666H51.334A3.678,3.678,0,0,0,55,36.15V9.182C55,7.166,53.685,6.513,52.078,7.731Z" transform="translate(0 -1.316)" fill="#fff"/></g></g></svg>