<svg xmlns="http://www.w3.org/2000/svg" width="44.179" height="60" viewBox="0 0 44.179 60"><g transform="translate(-25.883 -20)"><path d="M34.972,0A22.115,22.115,0,0,0,12.883,22.09a21.547,21.547,0,0,0,1.932,9.017c5.523,12.085,16.111,24.844,19.226,28.467a1.23,1.23,0,0,0,1.863,0c3.113-3.622,13.7-16.38,19.227-28.467a21.538,21.538,0,0,0,1.932-9.017A22.117,22.117,0,0,0,34.972,0Zm0,33.563A11.474,11.474,0,1,1,46.446,22.089,11.488,11.488,0,0,1,34.972,33.563Z" transform="translate(13 20)" fill="#fff"/></g></svg>